<?xml version="1.0" encoding="UTF-8" standalone="no"?>
<svg
   xml:space="preserve"
   width="200"
   height="200"
   viewBox="0 0 371.352 371.352"
   version="1.1"
   id="svg8"
   sodipodi:docname="grid.svg"
   inkscape:version="1.4 (e7c3feb, 2024-10-09)"
   xmlns:inkscape="http://www.inkscape.org/namespaces/inkscape"
   xmlns:sodipodi="http://sodipodi.sourceforge.net/DTD/sodipodi-0.dtd"
   xmlns="http://www.w3.org/2000/svg"
   xmlns:svg="http://www.w3.org/2000/svg"><defs
     id="defs8" /><sodipodi:namedview
     id="namedview8"
     pagecolor="#ffffff"
     bordercolor="#000000"
     borderopacity="0.25"
     inkscape:showpageshadow="2"
     inkscape:pageopacity="0.0"
     inkscape:pagecheckerboard="0"
     inkscape:deskcolor="#d1d1d1"
     inkscape:zoom="4.03"
     inkscape:cx="99.875931"
     inkscape:cy="100"
     inkscape:window-width="1870"
     inkscape:window-height="1011"
     inkscape:window-x="1970"
     inkscape:window-y="32"
     inkscape:window-maximized="1"
     inkscape:current-layer="svg8" /><path
     d="M223.816 182.843h-37.43v-77.509h74.86v77.509zM306.315 348.964h-37.43V21.52h74.86v327.444Z"
     style="fill:#0f0;stroke:none;stroke-width:7.42704"
     transform="rotate(90 182.567 185.622)"
     id="path1" /><path
     d="M223.816 348.76h-37.43v-78.507h74.86v78.507z"
     style="fill:#0f0;stroke:none;stroke-width:7.42705"
     transform="rotate(90 182.567 185.622)"
     id="path2" /><path
     d="M 18.485001,61.311 V 21.069 H 265.3812 v 80.484 H 18.485001 Z"
     style="fill:#4d4d4d;stroke:none;stroke-width:7.42704"
     id="path3" /><path
     d="M141.394 347.254h-38.569v-78.701h77.137v78.7z"
     style="fill:#ff0;stroke:none;stroke-width:7.42703"
     transform="rotate(90 182.567 185.622)"
     id="path4" /><path
     d="M141.44 183.07h-39.551V21.463h79.102V183.07zM224.426 103.03h-40.773V19.797h81.545v83.231Z"
     style="fill:#4d4d4d;stroke:none;stroke-width:7.42703"
     transform="rotate(90 182.567 185.622)"
     id="path5" /><path
     d="M140.913 266.424H99.859v-79.857h82.107v79.857z"
     style="fill:#4d4d4d;stroke:none;stroke-width:7.42702"
     transform="rotate(90 182.567 185.622)"
     id="path6" /><path
     d="M223.467 267.959h-40.222v-82.076h80.444v82.076z"
     style="fill:#ff0;stroke:none;stroke-width:7.42703"
     transform="rotate(90 182.567 185.622)"
     id="path7" /><path
     d="m 266.96722,61.516792 v -38.569 h 78.701 v 77.136998 h -78.7 z"
     style="fill:#ffff00;stroke:none;stroke-width:7.42703"
     id="path9" /><path
     d="M21.389 270.413h323.884M19.097 105.415h326.94m-326.94 82.499h326.176m-80.207 161.178V25.208M100.068 351.384V24.444m82.499 326.94V25.208M17.569 352.148V22.152h329.996v329.996Z"
     style="fill:none;stroke:#000;stroke-width:7.42704"
     transform="rotate(90 183.713 186.768)"
     id="path8" /></svg>
